<svg xmlns="http://www.w3.org/2000/svg" width="24.448" height="33" viewBox="0 0 24.448 33">
  <path id="_ionicons_svg_ios-git-branch" d="M109.3,36.714a5.154,5.154,0,0,0-1.039,10.2c-.088,1.407-.759,2.158-1.989,3.108a10.878,10.878,0,0,1-4.81,1.724,8.334,8.334,0,0,0-5.34,2.946V42.224a5.154,5.154,0,1,0-2.062-.029V54.813a5.187,5.187,0,0,0-2.777,1.643,5.151,5.151,0,1,0,6.769-.877,6.419,6.419,0,0,1,3.764-1.8,12.776,12.776,0,0,0,5.7-2.121c1.738-1.341,2.7-2.689,2.8-4.736A5.156,5.156,0,0,0,109.3,36.714Zm-17.237.442a3.094,3.094,0,1,1,3.094,3.094A3.093,3.093,0,0,1,92.063,37.156ZM98.25,59.844a3.094,3.094,0,1,1-3.094-3.094A3.093,3.093,0,0,1,98.25,59.844ZM109.3,44.964a3.094,3.094,0,1,1,3.094-3.094A3.093,3.093,0,0,1,109.3,44.964Z" transform="translate(-90 -32)" fill="#d6d6d6"/>
</svg>
