<svg xmlns="http://www.w3.org/2000/svg" xmlns:xlink="http://www.w3.org/1999/xlink" width="456" height="385.277" viewBox="0 0 456 385.277">
  <defs>
    <clipPath id="clip-path">
      <rect id="Rectangle_563" data-name="Rectangle 563" width="456" height="385.277" fill="#fff"/>
    </clipPath>
    <clipPath id="clip-path-2">
      <path id="Path_2427" data-name="Path 2427" d="M21.473,30.447C33.621,30.007,43.706,22.838,44,14.436S34.679-.42,22.531.021.3,7.631.006,16.033,9.325,30.888,21.473,30.447Z" transform="translate(21.696 53.307) rotate(-119.54)" fill="#fdd053"/>
    </clipPath>
  </defs>
  <g id="Layer_2" data-name="Layer 2" transform="translate(0 -24.32)">
    <g id="Layer_1" data-name="Layer 1" transform="translate(0 24.32)">
      <g id="Mask_Group_389" data-name="Mask Group 389" clip-path="url(#clip-path)">
        <path id="Path_2323" data-name="Path 2323" d="M2322.07,833.758l.144-.027a11.186,11.186,0,0,1,10.841,4.574c2.047,3.089,2.047,7.476.771,10.823a11.1,11.1,0,0,0-1.207,3.927c.03,1.9,1.517,3.532,3.19,4.648s3.6,1.9,5.178,3.123c2.537,1.971,3.9,6.424,2.077,9.153-3.452,5.158-10.131,7.712-13.147,13.361-1.678,3.141-2.823,7.094-6.366,8.36-3.385,1.209-7.067-.781-9.9-2.875s-5.93-4.515-9.551-4.266c-2.347.16-4.394,1.438-6.422,2.542-2.58,1.409-5.44,2.623-8.44,2.542s-6.12-1.808-6.776-4.5c-.784-3.234,2.026-6.806.4-9.762-2.408-4.37-10.046-5.111-5.395-11.553,1.338-1.85,3.912-2.256,4.662-4.734,1.1-3.631-2.874-7.294-1.972-10.969.843-3.436,5.379-4.927,7.225-8.013,2.071-3.429.666-8.51,4.049-10.9,2.259-1.6,5.585-1.005,8.028.34s4.429,3.325,6.907,4.619a14.744,14.744,0,0,0,10.094,1.217C2318.372,834.935,2320.151,834.1,2322.07,833.758Z" transform="translate(-2264.407 -624.317)" fill="#9b87ff"/>
        <line id="Line_35" data-name="Line 35" x2="16.779" y2="10.932" transform="translate(28.205 225.797)" fill="none" stroke="#fff" stroke-miterlimit="10" stroke-width="3"/>
        <line id="Line_36" data-name="Line 36" x2="1.472" y2="6.542" transform="translate(34.58 224.368)" fill="none" stroke="#fff" stroke-miterlimit="10" stroke-width="3"/>
        <line id="Line_37" data-name="Line 37" y1="0.554" x2="11.33" transform="translate(29.102 233.763)" fill="none" stroke="#fff" stroke-miterlimit="10" stroke-width="3"/>
        <line id="Line_38" data-name="Line 38" x2="24.039" y2="9.289" transform="translate(22.04 243.771)" fill="none" stroke="#fff" stroke-miterlimit="10" stroke-width="3"/>
        <line id="Line_39" data-name="Line 39" x2="2.534" y2="8.102" transform="translate(34.06 241.293)" fill="none" stroke="#fff" stroke-miterlimit="10" stroke-width="3"/>
        <line id="Line_40" data-name="Line 40" y1="4.298" x2="5.636" transform="translate(25.85 247.421)" fill="none" stroke="#fff" stroke-miterlimit="10" stroke-width="3"/>
        <line id="Line_41" data-name="Line 41" y1="11.457" x2="17.314" transform="translate(45.538 232.418)" fill="none" stroke="#fff" stroke-miterlimit="10" stroke-width="3"/>
        <line id="Line_42" data-name="Line 42" x1="3.947" y2="14.087" transform="translate(54.195 224.058)" fill="none" stroke="#fff" stroke-miterlimit="10" stroke-width="3"/>
        <line id="Line_43" data-name="Line 43" x2="12.89" y2="1.724" transform="translate(51.42 239.982)" fill="none" stroke="#fff" stroke-miterlimit="10" stroke-width="3"/>
        <line id="Line_44" data-name="Line 44" y2="81.331" transform="translate(45.538 221.577)" fill="none" stroke="#fff" stroke-miterlimit="10" stroke-width="3"/>
        <path id="Path_2324" data-name="Path 2324" d="M1301.426,1094.943a17.35,17.35,0,0,1-5.9,1.478c-8.007.283-13.712-8.205-21.727-8.151-6.174.042-11.212,5.227-17.394,5.106-5.976-.118-7.9-3.825-10.972-7.466-5.352-6.326-17.592-9.71-26.134-8.883-9.5.921-17.258,8-26.742,9.087-6.982.8-13.942-1.791-19.885-5.259s-11.24-7.833-17.244-11.2c-5.189-2.907-11.344-5.084-17.268-3.847-8.743,1.823-13.851,10.176-21.585,14.346a24.913,24.913,0,0,1-21.646.66c-3.885-1.788-7.383-4.651-11.7-5.055-8.448-.791-13.784,7.166-20.311,10.614-10.329,5.454-13.581-7.281-24.033-6.636-8.341.517-12.489,10.668-20.8,11.488-9.663.956-18.5-11.331-26.784-6.833-4.5,2.443-5.513,8.937-10.685,9.907-5.234.985-9.141-4.712-14.437-5.372-4.244-.53-8.223,2.485-9.749,6.018-11.614,26.928,48.7,29.544,65.06,29.544s31.31-1.872,42.752-4.964c17.737,10.506,53.175,17.674,94.009,17.674,41.021,0,76.6-7.232,94.252-17.816,11.507,3.175,26.667,5.106,43.274,5.106,13.517,0,27.277-1.121,40.328-4.34,7.509-1.85,23.5-5.052,23.2-14.166-.174-5.215-5.352-9.488-11.063-10.88a22.718,22.718,0,0,0-9.213-.306c-6.091,1.059-12.794,4.488-17.929,1.4-1.991-1.2-3.257-3.2-5.352-4.259C1311.215,1089.688,1306.438,1092.891,1301.426,1094.943Z" transform="translate(-926.284 -803.089)" fill="#7f799b"/>
        <path id="Path_2417" data-name="Path 2417" d="M688.557,0h0Z" transform="translate(0 302.172)" fill="#fff"/>
        <path id="Path_2325" data-name="Path 2325" d="M2092.185,301.062a3.149,3.149,0,0,1,2.778-2.931c.613.012,1.212.16,1.822.131a3.9,3.9,0,0,0,3.1-2.217,3.612,3.612,0,0,1,3.479-1.825c2.288.352,3.442,3.131,6.04,1.044,1.7-1.365,1.83-3.274,3.746-4.6a6.725,6.725,0,0,1,5.248-.943c2.315.655,3.176,2.766,5.641,3.133a5.773,5.773,0,0,0,5.564-2.882c1.057-1.673,1.45-3.481,2.355-5.185a6.163,6.163,0,0,1,5.545-3.641c2.556.039,3.682,1.527,4.934,2.71,1.63,1.537,5.02,7.055,8.831,6.39,1.483-.261,2.221-1.342,3.559-1.828a6.417,6.417,0,0,1,6.185,1.641c1.3,1.35,1.809,2.976,3.273,4.252a3.441,3.441,0,0,0,1.432.791c2.044.515,3.947-1.069,6.136-1.187a5.345,5.345,0,0,1,3.779,1.37,17.739,17.739,0,0,1,2.007,2.611,2.047,2.047,0,0,0,.73.655c.958.473,2.309.074,3.479-.111,2.906-.461,6.206.766,7.027,2.613Z" transform="translate(-2060.19 -211.975)" fill="#fff"/>
        <path id="Path_2326" data-name="Path 2326" d="M1124.345,229.906a2.057,2.057,0,0,0-1.82-1.921c-.4,0-.8.106-1.2.086a2.567,2.567,0,0,1-2.034-1.448,2.384,2.384,0,0,0-2.275-1.195c-1.5.232-2.256,2.052-3.961.685-1.116-.894-1.2-2.148-2.462-3.015a4.4,4.4,0,0,0-3.441-.618c-1.517.429-2.082,1.813-3.7,2.054a3.785,3.785,0,0,1-3.647-1.889c-.693-1.1-.95-2.283-1.544-3.4a4.043,4.043,0,0,0-3.637-2.387c-1.675.025-2.408,1-3.235,1.776-1.07,1.007-3.289,4.623-5.78,4.188-.971-.17-1.458-.879-2.333-1.2a4.2,4.2,0,0,0-4.057,1.074c-.846.884-1.186,1.953-2.141,2.788a2.28,2.28,0,0,1-.939.52c-1.338.337-2.588-.7-4.014-.778a3.5,3.5,0,0,0-2.481.9,11.1,11.1,0,0,0-1.314,1.724,1.341,1.341,0,0,1-.479.431,4.158,4.158,0,0,1-2.285-.074c-1.905-.3-4.07.493-4.608,1.712Z" transform="translate(-719.714 -163.523)" fill="#585b6e"/>
        <path id="Path_2327" data-name="Path 2327" d="M2048.614,1156.08H1981.13v15.693a2.818,2.818,0,0,0,2.927,2.695h61.629a2.818,2.818,0,0,0,2.928-2.695V1156.08Z" transform="translate(-1890.212 -871.392)" fill="#381f7a"/>
        <path id="Path_2328" data-name="Path 2328" d="M2045.92,725.54h-62.084a2.6,2.6,0,0,0-2.706,2.49V831.89h67.495V728.033A2.6,2.6,0,0,0,2045.92,725.54Z" transform="translate(-1890.223 -546.905)" fill="#381f7a"/>
        <rect id="Rectangle_529" data-name="Rectangle 529" width="61.056" height="103.242" transform="translate(94.239 190.641)" fill="#fff"/>
        <path id="Path_2329" data-name="Path 2329" d="M2071.932,749.991h17.844a.688.688,0,0,0,.712-.655h0a.688.688,0,0,0-.712-.655h-17.844a.688.688,0,0,0-.712.655h0A.688.688,0,0,0,2071.932,749.991Z" transform="translate(-1956.194 -564.345)" fill="#6dc9f0"/>
        <rect id="Rectangle_530" data-name="Rectangle 530" width="61.139" height="6.547" transform="translate(94.236 190.526)" fill="#00a3d5"/>
        <path id="Path_2330" data-name="Path 2330" d="M2000.62,782.046a1.587,1.587,0,1,0,1.579-1.456A1.523,1.523,0,0,0,2000.62,782.046Z" transform="translate(-1850.597 -588.394)" fill="#fff"/>
        <path id="Path_2331" data-name="Path 2331" d="M2021.89,782.046a1.587,1.587,0,1,0,1.582-1.456,1.523,1.523,0,0,0-1.582,1.456Z" transform="translate(-1877.559 -588.394)" fill="#fff"/>
        <path id="Path_2332" data-name="Path 2332" d="M2043.18,782.046a1.587,1.587,0,1,0,1.582-1.456A1.523,1.523,0,0,0,2043.18,782.046Z" transform="translate(-1904.546 -588.394)" fill="#fff"/>
        <rect id="Rectangle_531" data-name="Rectangle 531" width="51.832" height="57.822" transform="translate(98.745 202.381)" fill="#b6e4f8"/>
        <rect id="Rectangle_532" data-name="Rectangle 532" width="51.832" height="14.794" rx="7.397" transform="translate(98.745 269.403)" fill="#9b87ff"/>
        <path id="Path_2418" data-name="Path 2418" d="M21.563,44.968a24.858,24.858,0,0,0,23.4-23.4A20.354,20.354,0,0,0,23.424.02a24.858,24.858,0,0,0-23.4,23.4A20.354,20.354,0,0,0,21.563,44.968Z" transform="translate(124.712 263.745) rotate(-135)" fill="#e5a535"/>
        <path id="Path_2419" data-name="Path 2419" d="M19.2,42.072c10.723-.118,19.512-9.632,19.63-21.249S30.354-.117,19.631,0,.119,9.633,0,21.25,8.48,42.19,19.2,42.072Z" transform="translate(106.386 253.883) rotate(-97.4)" fill="#fdd053"/>
        <path id="Path_2333" data-name="Path 2333" d="M2042.465,882.594c0-8.267-5.694-15.625-14.183-18.327,8.715-2.77,18.374,0,23.839,6.835a18.16,18.16,0,0,1,0,22.983c-5.465,6.835-15.124,9.6-23.839,6.835C2036.771,898.22,2042.466,890.861,2042.465,882.594Z" transform="translate(-1910.435 -650.659)" fill="#f4c34b"/>
        <path id="Path_2334" data-name="Path 2334" d="M2090.912,917.305v-3.069a10.233,10.233,0,0,0,5.052-1.34l-.8-2.032a9.387,9.387,0,0,1-4.758,1.305c-2.344,0-3.928-1.246-3.928-2.98,0-1.67,1.29-2.71,3.746-3.616,3.367-1.217,5.448-2.616,5.448-5.259,0-2.52-1.948-4.434-4.986-4.892V892.35h-2.044v2.956a9.39,9.39,0,0,0-4.282,1.062l.824,2.008a8.509,8.509,0,0,1,4.158-1.035c2.545,0,3.5,1.4,3.5,2.616,0,1.579-1.223,2.37-4.1,3.463-3.4,1.276-5.117,2.857-5.117,5.562,0,2.4,1.817,4.651,5.218,5.173v3.16Z" transform="translate(-1964.991 -672.625)" fill="#e5a535"/>
        <path id="Path_2335" data-name="Path 2335" d="M2051,1114.624a1.565,1.565,0,0,0,.659,1.33,3.06,3.06,0,0,0,1.838.493,4.646,4.646,0,0,0,1.916-.374v-1.232a8.413,8.413,0,0,1-1.159.4,3.752,3.752,0,0,1-.87.116,1.317,1.317,0,0,1-.725-.168.583.583,0,0,1-.142-.82,1.2,1.2,0,0,1,.326-.273,8.908,8.908,0,0,1,.878-.424,4.129,4.129,0,0,0,.932-.515,1.939,1.939,0,0,0,.495-.576,1.688,1.688,0,0,0-.423-2.067,2.687,2.687,0,0,0-1.683-.473,4.293,4.293,0,0,0-1.006.113,7.368,7.368,0,0,0-1,.325l.463,1.027a7.271,7.271,0,0,1,.9-.286,3.1,3.1,0,0,1,.7-.081.984.984,0,0,1,.626.175.559.559,0,0,1,.217.456.527.527,0,0,1-.089.306.97.97,0,0,1-.267.246,9.427,9.427,0,0,1-.91.438,3.635,3.635,0,0,0-1.3.838A1.555,1.555,0,0,0,2051,1114.624Z" transform="translate(-1915.71 -836.689)" fill="#fff"/>
        <path id="Path_2336" data-name="Path 2336" d="M2079.17,1116.622h3.9v-6.232h-3.9v1.084h2.465v1.367h-2.293v1.084h2.293v1.606h-2.465Z" transform="translate(-1950.903 -836.957)" fill="#fff"/>
        <path id="Path_2337" data-name="Path 2337" d="M2106.125,1116.584h1.825l2.944-4.715h.043q-.089,1.249-.089,1.783v2.931h1.282v-6.232h-1.812l-2.943,4.668h-.032c.048-.81.07-1.382.07-1.724v-2.956h-1.293Z" transform="translate(-1987.176 -836.919)" fill="#fff"/>
        <path id="Path_2338" data-name="Path 2338" d="M2142,1113.447a2.94,2.94,0,0,0,.953,2.357,4.087,4.087,0,0,0,2.748.818h1.919v-6.232h-2.141a3.77,3.77,0,0,0-2.574.806A2.81,2.81,0,0,0,2142,1113.447Zm1.49.034q0-2.01,1.927-2.007h.765v4.057h-.615a1.825,1.825,0,0,1-2.079-2.049Z" transform="translate(-2032.267 -836.957)" fill="#fff"/>
        <path id="Path_2339" data-name="Path 2339" d="M1452.548,929.67H1335.606a1.546,1.546,0,0,0-1.606,1.478v65a1.546,1.546,0,0,0,1.606,1.478h118.548V931.148A1.546,1.546,0,0,0,1452.548,929.67Z" transform="translate(-1122.578 -700.753)" fill="#4ab4d8"/>
        <path id="Path_2340" data-name="Path 2340" d="M1346.587,939.53h110.5a1.666,1.666,0,1,1,0,3.328H1352.613v62.2h-7.843V941.2a1.6,1.6,0,0,1,.533-1.18,1.892,1.892,0,0,1,1.284-.485Z" transform="translate(-1130.137 -708.184)" fill="#303672" opacity="0.2"/>
        <path id="Path_2420" data-name="Path 2420" d="M22.675,43.459C35.5,43.153,46.145,33.179,46.451,21.18S36.607-.3,23.782.007.312,10.288.007,22.287,9.85,43.765,22.675,43.459Z" transform="translate(308.083 255.055) rotate(-161.75)" fill="#e5a535"/>
        <path id="Path_2421" data-name="Path 2421" d="M20.144,39.372c11.471-.351,21.055-9.447,21.406-20.317S32.888-.341,21.416.01.361,9.458.01,20.327,8.673,39.724,20.144,39.372Z" transform="matrix(-0.908, -0.418, 0.418, -0.908, 303.461, 253.683)" fill="#fdd053"/>
        <path id="Path_2341" data-name="Path 2341" d="M1421.913,866.792a18.228,18.228,0,0,0-3.353-22.292c9.117,1.262,16.282,7.835,17.685,16.222s-3.283,16.64-11.565,20.367a22.4,22.4,0,0,1-24.565-4.1c8.884,1.227,17.636-2.865,21.8-10.193Z" transform="translate(-1122.608 -636.562)" fill="#f4c34b"/>
        <path id="Path_2342" data-name="Path 2342" d="M1451.729,899.716l1.544-2.71a10.355,10.355,0,0,0,5.151.966l.321-2.141a9.488,9.488,0,0,1-4.873-.87c-2.077-1-2.853-2.781-1.983-4.316.843-1.478,2.5-1.847,5.127-1.613,3.6.357,6.155,0,7.474-2.338,1.268-2.237.508-4.764-1.956-6.464l1.547-2.71-1.817-.872-1.482,2.613a9.489,9.489,0,0,0-4.338-.889l-.268,2.131a8.579,8.579,0,0,1,4.207.857c2.253,1.084,2.408,2.732,1.785,3.811-.8,1.4-2.275,1.581-5.371,1.325-3.656-.32-5.973.35-7.335,2.746-1.207,2.128-.731,4.9,2.023,6.8l-1.589,2.8Z" transform="translate(-1164.252 -660.793)" fill="#e5a535"/>
        <path id="Path_2447" data-name="Path 2447" d="M23.281,43.1C36.2,43.038,46.73,33.337,46.795,21.435S36.436-.064,23.514,0,.065,9.766,0,21.668,10.359,43.166,23.281,43.1Z" transform="translate(287.145 227.687) rotate(-176.4)" fill="#e5a535"/>
        <path id="Path_2423" data-name="Path 2423" d="M19.181,42.054c10.728-.135,19.535-9.659,19.67-21.271S30.4-.134,19.671,0,.137,9.66,0,21.273,8.453,42.189,19.181,42.054Z" transform="translate(247.183 227.021) rotate(-98.51)" fill="#fdd053"/>
        <path id="Path_2343" data-name="Path 2343" d="M1523.766,769.664c-3.076-7.769-11.166-12.888-20.148-12.747a22.533,22.533,0,0,1,24.937-1.074c7.672,4.7,11.13,13.452,8.536,21.594s-10.638,13.785-19.855,13.929C1524.219,786.154,1526.841,777.439,1523.766,769.664Z" transform="translate(-1251.759 -567.292)" fill="#f4c34b"/>
        <path id="Path_2344" data-name="Path 2344" d="M1562.691,806.836l-1.14-2.884a9.614,9.614,0,0,0,4.247-2.85l-1.5-1.66a8.809,8.809,0,0,1-3.982,2.727c-2.2.739-4.156.064-4.8-1.562-.621-1.571.206-2.956,2.162-4.574,2.711-2.217,4.145-4.187,3.163-6.651-.937-2.37-3.479-3.555-6.5-3.025l-1.143-2.887-1.924.645,1.1,2.771a8.818,8.818,0,0,0-3.637,2.35l1.52,1.626a8.024,8.024,0,0,1,3.524-2.281c2.39-.8,3.808.209,4.263,1.355.586,1.478-.268,2.611-2.561,4.545-2.721,2.269-3.747,4.3-2.738,6.838.891,2.256,3.433,3.8,6.821,3.2l1.175,2.956Z" transform="translate(-1291.684 -590.565)" fill="#e5a535"/>
        <path id="Path_2424" data-name="Path 2424" d="M21.473,30.447C33.621,30.007,43.706,22.838,44,14.436S34.679-.42,22.531.021.3,7.631.006,16.033,9.325,30.888,21.473,30.447Z" transform="translate(207.95 193.539) rotate(-119.54)" fill="#fdd053"/>
        <g id="Group_388" data-name="Group 388" transform="translate(186.254 140.233)" clip-path="url(#clip-path-2)">
          <path id="Path_2425" data-name="Path 2425" d="M.315,8.62l18.133.635L18.133.635,0,0Z" transform="translate(21.379 27.016) rotate(150.16)" fill="#e5a535"/>
          <path id="Path_2426" data-name="Path 2426" d="M.212,5.8l18.133.635-.212-5.8L0,0Z" transform="translate(28.373 38.239) rotate(150.16)" fill="#e5a535"/>
        </g>
        <path id="Path_2428" data-name="Path 2428" d="M1.606,44.006l6.123.214L6.123.214,0,0Z" transform="translate(227.298 182.739) rotate(150.16)" fill="#fdd053"/>
        <path id="Path_2429" data-name="Path 2429" d="M21.473,30.447C33.621,30.007,43.706,22.838,44,14.436S34.679-.42,22.531.021.3,7.631.006,16.033,9.325,30.888,21.473,30.447Z" transform="translate(213.153 190.791) rotate(-119.54)" fill="#e5a535"/>
        <path id="Path_2430" data-name="Path 2430" d="M19.325,27.406c10.933-.4,20.008-6.849,20.271-14.412S31.21-.378,20.277.019.269,6.868.006,14.431,8.392,27.8,19.325,27.406Z" transform="translate(213.392 188.125) rotate(-119.54)" fill="#fdd053"/>
        <path id="Path_2345" data-name="Path 2345" d="M1730.136,606.058c-5.735-9.316-15.823-14.04-22.532-10.533-.1.052-.19.108-.286.163a9.382,9.382,0,0,1,1.924-1.335c6.709-3.5,16.8,1.214,22.532,10.533,5.652,9.178,4.964,19.393-1.474,23.039C1735.172,623.571,1735.263,614.388,1730.136,606.058Z" transform="translate(-1503.931 -447.16)" fill="#f4c34b"/>
        <path id="Path_2346" data-name="Path 2346" d="M1752.338,643.962l-1.643-2.67a4.633,4.633,0,0,0,2.2-2.685l-1.547-1.532a4.27,4.27,0,0,1-2.045,2.569,2.944,2.944,0,0,1-3.861-1.411c-.894-1.453-.706-2.742.217-4.269,1.287-2.072,1.739-3.914.324-6.215-1.338-2.192-3.5-3.274-5.5-2.756l-1.643-2.673-1.183.616,1.582,2.567a4.229,4.229,0,0,0-1.908,2.217l1.552,1.5a3.849,3.849,0,0,1,1.844-2.153,2.577,2.577,0,0,1,3.42,1.232c.846,1.372.567,2.429-.506,4.247a5.477,5.477,0,0,0,.029,6.377c1.285,2.086,3.538,3.5,5.775,2.926l1.694,2.749Z" transform="translate(-1529.248 -469.11)" fill="#e5a535"/>
        <path id="Path_2347" data-name="Path 2347" d="M1448.119,953H1335.606a1.546,1.546,0,0,0-1.606,1.478v65a1.546,1.546,0,0,0,1.606,1.478h112.513Z" transform="translate(-1116.544 -718.336)" fill="#6dc9f0"/>
        <path id="Path_2348" data-name="Path 2348" d="M1682.4,1051.09H1644v19.654h38.4a1.546,1.546,0,0,0,1.606-1.478v-16.7a1.546,1.546,0,0,0-1.606-1.478Z" transform="translate(-1435.391 -792.264)" fill="#4ab4d8"/>
        <path id="Path_2431" data-name="Path 2431" d="M6.008,11.669a6.462,6.462,0,0,0,6.36-6.01A5.6,5.6,0,0,0,6.362,0,6.462,6.462,0,0,0,0,6.013,5.6,5.6,0,0,0,6.008,11.669Z" transform="translate(241.407 276.425) rotate(-157.33)" fill="#381f7a"/>
        <path id="Path_2432" data-name="Path 2432" d="M.348,8.643,44.8,10.462l-.348-8.643L0,0Z" transform="translate(256.202 172.901) rotate(129.23)" fill="#fdd053"/>
        <path id="Path_2433" data-name="Path 2433" d="M.348,8.643l11.3.462L11.3.462,0,0Z" transform="translate(252.236 177.374) rotate(129.23)" fill="#e5a535"/>
        <path id="Path_2434" data-name="Path 2434" d="M.348,8.643,6.5,8.895,6.152.252,0,0Z" transform="translate(232.772 199.316) rotate(129.23)" fill="#e5a535"/>
        <path id="Path_2435" data-name="Path 2435" d="M.041,1.023,44.492,2.842l-.041-1.023L0,0Z" transform="translate(256.202 172.902) rotate(129.23)" fill="#da9f2b"/>
        <path id="Path_2436" data-name="Path 2436" d="M0,10.461l44.512-1.83L44.862,0,.35,1.83Z" transform="translate(164.936 154.057) rotate(49.81)" fill="#fdd053"/>
        <path id="Path_2437" data-name="Path 2437" d="M0,9.1l11.312-.465L11.662,0,.35.465Z" transform="translate(167.937 159.352) rotate(49.81)" fill="#e5a535"/>
        <path id="Path_2438" data-name="Path 2438" d="M0,8.885l6.16-.253L6.51,0,.35.253Z" transform="translate(187.639 181.126) rotate(49.81)" fill="#e5a535"/>
        <path id="Path_2439" data-name="Path 2439" d="M0,2.852l44.512-1.83L44.553,0,.041,1.83Z" transform="translate(165.134 154.295) rotate(49.81)" fill="#da9f2b"/>
        <path id="Path_2349" data-name="Path 2349" d="M2125.265,791.342a25.487,25.487,0,0,1-1.29-4.082l-2.8,1.005a8.655,8.655,0,0,0,.747,2.111c.321.665.69,1.3.982,1.983q1.177-.529,2.408-.941A.123.123,0,0,1,2125.265,791.342Z" transform="translate(-2004.381 -593.421)" fill="#f4a49b"/>
        <path id="Path_2350" data-name="Path 2350" d="M2148.449,700.374a37.926,37.926,0,0,0-2.155-5.387,2.181,2.181,0,0,0-.669-.894,2.643,2.643,0,0,0-.883-.32l-7.461-1.724a47.338,47.338,0,0,0-7.445-1.3c-1.573-.106-6.179-.559-6.762,1.2a2.224,2.224,0,0,0,.351,1.8c1.183,1.99,3.591,3.067,5.917,3.82a44.664,44.664,0,0,0,12.149,2.145c2.194,5.621,3.848,11.415,5.737,17.142l4.895-1.207s-1.413-6.9-1.606-7.636C2149.865,705.436,2149.252,702.879,2148.449,700.374Z" transform="translate(-2031.686 -520.586)" fill="#8070f2"/>
        <path id="Path_2351" data-name="Path 2351" d="M2111.606,803.109c.137.027.163-1.086.163-1.177a2.121,2.121,0,0,0-.921-1.84,5.227,5.227,0,0,0-1.892-.692,38.125,38.125,0,0,0-5.606-.537.7.7,0,0,0-.706.313,5.69,5.69,0,0,0-.616,1.875C2102.016,801.119,2109.688,802.72,2111.606,803.109Z" transform="translate(-1985.723 -602.159)"/>
        <path id="Path_2352" data-name="Path 2352" d="M2188.157,564.8c-.519.756-.68,1.365-1.782,1.232a6.326,6.326,0,0,1-2.727-1.076,7.294,7.294,0,0,1-3.264-4.633c-.4-2.71,2.141-4.927,4.881-5.321a6.755,6.755,0,0,1,.974-.071c2.323,0,5.325.966,4.683,3.616a19.108,19.108,0,0,1-2.764,6.254Z" transform="translate(-2085.917 -418.32)" fill="#f4a49b"/>
        <path id="Path_2353" data-name="Path 2353" d="M2172.866,788.12a25.641,25.641,0,0,1,1.624-3.981l-2.9-.739a8.6,8.6,0,0,0-.776,2.1c-.177.712-.292,1.421-.5,2.131q1.28.223,2.529.566Z" transform="translate(-2066.713 -590.512)" fill="#f4a49b"/>
        <path id="Path_2354" data-name="Path 2354" d="M2154.819,698.254a25.912,25.912,0,0,0-1.395,3.971c-1.054,3.611-3.152,10.838-3.152,10.838l4.381,1.2c1.092-2.793,2.371-5.518,3.658-8.237.452-.951.891-1.907,1.338-2.862.8-1.709,1.606-3.414,2.491-5.074a10.708,10.708,0,0,0,1.633-6.264c-.11-1.505-.709-2.621-2.371-2.919a46.448,46.448,0,0,0-5.387-.635c-1.191-.074-2.385-.1-3.578-.131l-8.472-.2-4.335-.1a17.306,17.306,0,0,0-3.072-.163,7.8,7.8,0,0,0-.19,4.55c1.338,3.845,5.144,5.685,9.379,5.547a22.016,22.016,0,0,0,7.255-1.69,9.252,9.252,0,0,1,2.719-.778C2155.9,696.258,2155.223,697.4,2154.819,698.254Z" transform="translate(-2046.868 -518.33)" fill="#9b87ff"/>
        <path id="Path_2355" data-name="Path 2355" d="M2167.614,804.566c.118.071.583-.956.621-1.039a2.028,2.028,0,0,0-.126-2.02,4.823,4.823,0,0,0-1.485-1.286,36.487,36.487,0,0,0-5-2.387.725.725,0,0,0-.782.052,6.149,6.149,0,0,0-1.316,1.537C2159.487,799.481,2165.984,803.558,2167.614,804.566Z" transform="translate(-2057.782 -601.322)"/>
        <path id="Path_2356" data-name="Path 2356" d="M2202.945,593.465a.254.254,0,0,1-.059.128.31.31,0,0,1-.171.064,11.761,11.761,0,0,1-3.985-.273q.535-2.118,1.186-4.2a.193.193,0,0,1,.07-.113.226.226,0,0,1,.166-.015c.674.111,1.338.232,2.02.357.57.106,1.14.165,1.707.283a18.515,18.515,0,0,0-.5,1.931C2203.245,592.234,2203.1,592.84,2202.945,593.465Z" transform="translate(-2103.707 -444.029)" fill="#f4a49b"/>
        <path id="Path_2357" data-name="Path 2357" d="M2201.981,623.2c-2.224-.067-12.939.074-12.931,0,.362-3.116.1-6.353.15-9.5a21.477,21.477,0,0,1,1.324-7.705c.87-2.163,2.331-4.481,5.176-4.434a5.3,5.3,0,0,1,1.5.246c2.408.739,3.615,2.98,4.282,5.072a25.2,25.2,0,0,1,.816,8.392c-.037,1.478.091,2.971.038,4.456C2202.3,620.887,2202.112,622.055,2201.981,623.2Z" transform="translate(-2099.585 -453.469)" fill="#381f7a"/>
        <path id="Path_2358" data-name="Path 2358" d="M2180.51,555.5a1.988,1.988,0,0,1-.819,1.549c-2.141,1.594-3.262-4.062-3.412-5.128a4.9,4.9,0,0,1,1.338-4.456c2.183-1.907,5.989-1.668,8.472-.461a5.267,5.267,0,0,1,2.178,1.759,2.487,2.487,0,0,1,.171,2.579.9.9,0,0,1-.95.51,2.7,2.7,0,0,1-.49-.3,1.265,1.265,0,0,0-1.25.1c-.559.345-.73.956-1.3,1.269a3.177,3.177,0,0,1-1.111.387,4.222,4.222,0,0,1-1.006-.126.7.7,0,0,0-.447-.845,1.236,1.236,0,0,0-1.071.15C2179.558,553.284,2180.532,554.427,2180.51,555.5Z" transform="translate(-2082.528 -411.641)" fill="#cb7c29"/>
        <path id="Path_2359" data-name="Path 2359" d="M2212.767,621.328c-.211.571-.42,1.143-.672,1.724l-1.606,3.675a1.786,1.786,0,0,1-.958,1.116,1.33,1.33,0,0,1-.918-.084,2.147,2.147,0,0,1-1.137-1.377c-.385-1.333.166-2.71.594-3.963a50.145,50.145,0,0,1,2.871-6.69,12.967,12.967,0,0,1,.932-1.682,3.367,3.367,0,0,1,1.514-1.232,2.109,2.109,0,0,1,1.945.195,1.433,1.433,0,0,1,.289,1.8,41.421,41.421,0,0,1-1.911,4.276,19.74,19.74,0,0,0-.945,2.244Z" transform="translate(-2117.937 -461.832)" fill="#f4a49b"/>
        <path id="Path_2360" data-name="Path 2360" d="M2182.575,662.948a65.806,65.806,0,0,1,9.508,1.771,1.909,1.909,0,0,1,.717.278.943.943,0,0,1-.209,1.581,1.755,1.755,0,0,1-.535.074,38.707,38.707,0,0,1-4.662.017c-1.621-.145-3.24-.3-4.857-.493q-.977-.116-1.951-.246a7.128,7.128,0,0,1-2.457-.52.442.442,0,0,1-.267-.355,1.727,1.727,0,0,1,0-.985c.369-1.03,1.536-1.232,2.566-1.232Q2181.5,662.852,2182.575,662.948Z" transform="translate(-2087.362 -499.649)" fill="#f4a49b"/>
        <path id="Path_2361" data-name="Path 2361" d="M2220.285,548.767a6.629,6.629,0,0,1,2.628-2.416c1.389-.791,3.479-2.217,2.676-3.993a2.49,2.49,0,0,0-1.365-1.182,8.671,8.671,0,0,0-7.453.613,4.992,4.992,0,0,0-1.964,4.518,15.751,15.751,0,0,0,.661,2.973,5.926,5.926,0,0,1,.177,3.005,1.851,1.851,0,0,1-1.45,1.478,3.754,3.754,0,0,0,2.529-.182,5,5,0,0,0,2.168-2.133C2219.4,550.575,2219.763,549.634,2220.285,548.767Z" transform="translate(-2129.733 -407.531)" fill="#cb7c29"/>
        <path id="Path_2440" data-name="Path 2440" d="M0,1.559l13.394-.1L13.406,0,.012.1Z" transform="translate(104.836 168.278) rotate(5.51)" fill="#381f7a"/>
        <path id="Path_2441" data-name="Path 2441" d="M.045,1.563l12.5.38L12.5.38,0,0Z" transform="matrix(-0.387, 0.922, -0.922, -0.387, 123.259, 159.604)" fill="#381f7a"/>
        <path id="Path_2362" data-name="Path 2362" d="M2163.707,669.668a4.084,4.084,0,0,0-.693-.185l-1.686-.323a3.637,3.637,0,0,0-1.7-.054,3.468,3.468,0,0,0-.752.362q-.6.357-1.209.712a1.11,1.11,0,0,0,.439.985,3.8,3.8,0,0,0,1.025.552,5.668,5.668,0,0,0,.8.281,5.358,5.358,0,0,0,3.747-.9c.091.406.182.81.268,1.217.062.268.372.879.763.493a.624.624,0,0,0,.1-.557l-.185-1.264a2.3,2.3,0,0,0-.206-.773,1.259,1.259,0,0,0-.7-.547Z" transform="translate(-2053.666 -504.309)" fill="#f4a49b"/>
        <path id="Path_2442" data-name="Path 2442" d="M0,83.829l1.888-.036L3.6,0,1.715.036Z" transform="matrix(-0.969, -0.246, 0.246, -0.969, 325.595, 303.402)" fill="#00a3d5"/>
        <path id="Path_2443" data-name="Path 2443" d="M0,83.959l1.888-.037L3.638,0,1.75.037Z" transform="matrix(-0.968, -0.251, 0.251, -0.968, 347.869, 303.416)" fill="#00a3d5"/>
        <rect id="Rectangle_548" data-name="Rectangle 548" width="22.663" height="1.746" transform="translate(341.975 232.997)" fill="#00a3d5"/>
        <rect id="Rectangle_549" data-name="Rectangle 549" width="22.596" height="1.746" transform="translate(338.927 244.066)" fill="#00a3d5"/>
        <rect id="Rectangle_550" data-name="Rectangle 550" width="22.529" height="1.746" transform="translate(335.879 255.139)" fill="#00a3d5"/>
        <rect id="Rectangle_551" data-name="Rectangle 551" width="22.463" height="1.746" transform="translate(332.831 266.211)" fill="#00a3d5"/>
        <rect id="Rectangle_552" data-name="Rectangle 552" width="22.396" height="1.746" transform="translate(329.783 277.283)" fill="#00a3d5"/>
        <rect id="Rectangle_553" data-name="Rectangle 553" width="22.329" height="1.746" transform="translate(326.732 288.355)" fill="#00a3d5"/>
        <path id="Path_2363" data-name="Path 2363" d="M1202.782,713.154c.982,1.406,2.443,3.283,1.672,4.894a11.132,11.132,0,0,1-2.3,2.8,19.556,19.556,0,0,1-4.038,3.143c-.581.34-3.575,1.875-3.479.175a1.194,1.194,0,0,1,.332-.643q2.689-3.325,5.681-6.429a24.878,24.878,0,0,0-1.946-2.4,25.683,25.683,0,0,0-2.21-2.569,6.761,6.761,0,0,1-1.809-3.648,2.668,2.668,0,0,1,.292-1.892c1.145-1.7,3.024.3,3.824,1.251a53.052,53.052,0,0,1,3.728,4.944C1202.606,712.9,1202.7,713.024,1202.782,713.154Z" transform="translate(-835.8 -532.117)" fill="#f4a49b"/>
        <path id="Path_2364" data-name="Path 2364" d="M1200.1,927.824a25.133,25.133,0,0,0-.409-4.234h3.01a8.43,8.43,0,0,1,.137,2.217c-.035.739-.131,1.441-.134,2.177q-1.3-.1-2.6-.076Z" transform="translate(-835.343 -696.17)" fill="#f4a49b"/>
        <path id="Path_2365" data-name="Path 2365" d="M1202.98,794.5c-.749-1.426-1.472-2.865-2.1-4.34l-.032-.076a97.894,97.894,0,0,1-4.862-16.3c-.364-1.581-.7-2.8-.139-4.365a5.327,5.327,0,0,1,2.328-2.9,9.109,9.109,0,0,1,6.125-1.116c3.72.68,3.332,4.609,3.415,7.234a75.282,75.282,0,0,1-.267,9.025c-.134,1.5-.31,3-.519,4.49a3.969,3.969,0,0,0,.024,1.843,6.621,6.621,0,0,0,.87,1.687,40.044,40.044,0,0,1,3.81,7.508,37.162,37.162,0,0,1,2.363,7.882c.016.108.134,1.3.112,1.3l-4.726-.047a.463.463,0,0,1-.219-.042.382.382,0,0,1-.134-.172c-1.338-2.734-2.74-5.419-4.167-8.129C1204.233,796.841,1203.6,795.676,1202.98,794.5Z" transform="translate(-845.487 -576.858)" fill="#4ab4d8"/>
        <path id="Path_2366" data-name="Path 2366" d="M1197.964,937.894c-.139,0,.112-1.091.131-1.18a2.223,2.223,0,0,1,1.338-1.6,5.369,5.369,0,0,1,2.018-.278,37.9,37.9,0,0,1,5.59.65.664.664,0,0,1,.61.453,5.562,5.562,0,0,1,.137,1.953C1207.791,937.963,1199.928,937.916,1197.964,937.894Z" transform="translate(-839.821 -704.641)"/>
        <path id="Path_2367" data-name="Path 2367" d="M1256.623,927.824a24.879,24.879,0,0,0-.407-4.234h3.008a8.221,8.221,0,0,1,.137,2.217c-.035.739-.131,1.441-.134,2.177q-1.3-.1-2.6-.076C1256.625,927.879,1256.625,927.859,1256.623,927.824Z" transform="translate(-906.992 -696.17)" fill="#f4a49b"/>
        <path id="Path_2368" data-name="Path 2368" d="M1221.5,793.8c-.763-2.83-2.018-5.774-1.873-8.71.112-2.463,1.105-4.68,2-6.971.862-2.217,1.742-4.434,2.716-6.634,1.07-2.441,2.141-5.239,5.2-5.993a9.16,9.16,0,0,1,6.206.621c2.676,1.338,2.283,4.377,1.311,6.584a23.018,23.018,0,0,1-5.5,7.355c-1.75,1.636-4.873,3.141-5.288,5.606-.241,1.424.466,3.163.763,4.559a51.182,51.182,0,0,1,1.386,9.092c.016.594.535,6.6.155,6.611l-4.043.1c-.672-.02-2.633-10.747-2.944-11.925C1221.554,794,1221.527,793.905,1221.5,793.8Z" transform="translate(-875.608 -576.809)" fill="#6dc9f0"/>
        <path id="Path_2369" data-name="Path 2369" d="M1207.231,712.17c-.035.027-2.079-2.463-2.261-2.687a6.25,6.25,0,0,1-1.4-2.742,4.528,4.528,0,0,1,0-1.771,2.441,2.441,0,0,1,1.605-1.815,2.788,2.788,0,0,1,2.272.426,6.256,6.256,0,0,1,1.571,1.658q.771,1.079,1.426,2.217a15.838,15.838,0,0,1,1.148,2.158A14.446,14.446,0,0,0,1207.231,712.17Z" transform="translate(-845.087 -529.972)" fill="#8b018d"/>
        <path id="Path_2370" data-name="Path 2370" d="M1254.478,937.894c-.139,0,.11-1.091.131-1.18a2.223,2.223,0,0,1,1.338-1.6,5.357,5.357,0,0,1,2.015-.278,37.975,37.975,0,0,1,5.593.65.662.662,0,0,1,.608.453,5.561,5.561,0,0,1,.139,1.953C1264.31,937.963,1256.442,937.916,1254.478,937.894Z" transform="translate(-911.457 -704.641)"/>
        <path id="Path_2371" data-name="Path 2371" d="M1213.337,654.251c-.053.894-.3,1.478.685,1.948a6.471,6.471,0,0,0,2.9.571,8.387,8.387,0,0,0,5.574-2.042c2.028-2,1.338-5.151-.642-6.939a5.921,5.921,0,0,0-.749-.576c-1.895-1.232-4.951-2.047-6.093.458A18.7,18.7,0,0,0,1213.337,654.251Z" transform="translate(-859.837 -486.986)" fill="#f4a49b"/>
        <path id="Path_2372" data-name="Path 2372" d="M1230.336,685.58a.191.191,0,0,0,.031.158.224.224,0,0,0,.146.089,11.62,11.62,0,0,0,3.953.552q0-2.173-.137-4.34a.147.147,0,0,0-.05-.134.178.178,0,0,0-.148-.041q-1.027-.044-2.055-.069c-.581-.012-1.151-.071-1.734-.074a17.544,17.544,0,0,1,.016,1.985Q1230.336,684.639,1230.336,685.58Z" transform="translate(-875.147 -513.878)" fill="#f4a49b"/>
        <path id="Path_2373" data-name="Path 2373" d="M1217.375,717.677q3.522.234,7.051.288c.506,0,6.559.015,6.559-.052,0-1.569-.1-3.126-.1-4.707,0-2.685.171-5.365.252-8.047.072-2.419.388-5.151-.891-7.37-1.252-2.175-4.5-3.328-7.043-2.747-2.486.569-3.958,2.791-4.573,4.941-1.234,4.316-1.231,9.321-1.244,13.75Q1217.38,715.706,1217.375,717.677Z" transform="translate(-868.442 -523.806)" fill="#8b018d"/>
        <path id="Path_2374" data-name="Path 2374" d="M1281.727,666.377q-.9,1.116-1.777,2.244a1.377,1.377,0,0,1-.45.419c-.4.19-1.225-.374-1.605-.532a.413.413,0,0,1-.171-.108c-.152-.187.3-.87.394-1.057.2-.4.409-.8.618-1.2a15.128,15.128,0,0,0,1.07-2.38c.123-.387.238-.768.728-.8a3.237,3.237,0,0,1,2.331.985c.535.677-.324,1.406-.733,1.916Z" transform="translate(-936.392 -499.74)" fill="#e6af3a"/>
        <path id="Path_2375" data-name="Path 2375" d="M1254.021,694.094a18.432,18.432,0,0,1,.268-2.131c.193-.966.418-1.926.535-2.9a1.453,1.453,0,0,0-.059-.8.915.915,0,0,0-.878-.493,1.191,1.191,0,0,0-.856.53,3.058,3.058,0,0,0-.388.911q-.776,2.557-1.547,5.114a10.414,10.414,0,0,0-.581,2.862c-.016,1.606,2.574,1.064,3.621.86a46.878,46.878,0,0,0,9.655-2.8,2.892,2.892,0,0,0,1.191-.739,2.147,2.147,0,0,0,.308-1.687,1.319,1.319,0,0,0-.332-.665,1.4,1.4,0,0,0-1.2-.224,37.243,37.243,0,0,0-6.765,1.668c-.99.328-2,.751-3.016.985Z" transform="translate(-911.431 -518.434)" fill="#f4a49b"/>
        <path id="Path_2376" data-name="Path 2376" d="M1215.026,640.151a6.749,6.749,0,0,0-3.318-1.69c-1.426-.246-2.762.355-4.161.155a1.823,1.823,0,0,1-1.4-.862.58.58,0,0,0-.238-.308.394.394,0,0,0-.193-.02c-1.488.182-1.338,2.6-.436,3.271a6.154,6.154,0,0,0,2.794.985,1.427,1.427,0,0,1,.615.155.74.74,0,0,1,.3.714,2.562,2.562,0,0,1-.268.759,8.112,8.112,0,0,0-.73,2.564.883.883,0,0,0,.043.466.387.387,0,0,0,.41.224,1.821,1.821,0,0,1,2.015-1.323c1.338.195.8,1.549.069,2.113-.185.143-.393.261-.562.419-.535.493-.557,1.8-.712,2.463.035-.148,3.187-.539,3.54-.65a5.893,5.893,0,0,0,4.124-4.83A5.193,5.193,0,0,0,1215.026,640.151Z" transform="translate(-850.778 -480.493)"/>
        <path id="Path_2377" data-name="Path 2377" d="M1271.884,641.033a8.336,8.336,0,0,0-5.125,0c-.415.15-.958.32-1.25,0a.825.825,0,0,1-.177-.387,7.286,7.286,0,0,1,2.962-7.518,1.915,1.915,0,0,1,2.031-.345,1.793,1.793,0,0,1,.5.628,23.433,23.433,0,0,0,2.021,3.116,12.7,12.7,0,0,0,2.9,2.614c.843.554,2.475,1.025,2.708,2.1a1.221,1.221,0,0,1-.235.9,1.774,1.774,0,0,1-.506.542c-.913.621-2.031-.222-2.877-.517C1273.837,641.831,1272.906,641.324,1271.884,641.033Z" transform="translate(-928.467 -476.862)" fill="#febe52"/>
        <path id="Path_2378" data-name="Path 2378" d="M1299.885,634.34l-.021.059a12.086,12.086,0,0,1-1.758,3.229c-.61.808-1.579,2.121-2.748,2.187-.8.044-1.025-.687-1.052-1.291a9.229,9.229,0,0,1,2.558-6.73,2.689,2.689,0,0,1,2.77-.9C1300.969,631.369,1300.206,633.433,1299.885,634.34Z" transform="translate(-958.194 -475.484)" fill="#e6af3a"/>
        <path id="Path_2379" data-name="Path 2379" d="M1286,672.517a.2.2,0,0,0-.053.022,1.109,1.109,0,0,0-.42.394c-.268.362-.535.739-.763,1.116a1.582,1.582,0,0,0-.238.522c-.128.685.878,1.544.511,2.515a9.557,9.557,0,0,1,1.686.064,1.093,1.093,0,0,0,.292.022,1.021,1.021,0,0,0,.166-.2,17.623,17.623,0,0,1,1.03-1.97,1.034,1.034,0,0,0,.187-.833c-.107-.34-.458-.493-.706-.739a6.81,6.81,0,0,0-.8-.724A1.041,1.041,0,0,0,1286,672.517Z" transform="translate(-943.607 -506.92)" fill="#f4a49b"/>
        <path id="Path_2380" data-name="Path 2380" d="M1242.391,700.756l1.5,4.727a46.066,46.066,0,0,0,4.5-1.145,7.794,7.794,0,0,0,2.9-1.589,2.3,2.3,0,0,0,.551-2.416,2.907,2.907,0,0,0-2.053-1.857c-1.563-.379-3.136.576-4.49,1.153C1245.08,699.714,1242.377,700.714,1242.391,700.756Z" transform="translate(-895.88 -526.441)" fill="#8b018d"/>
        <path id="Path_2444" data-name="Path 2444" d="M0,3.6,83.793,1.888,83.829,0,.036,1.715Z" transform="matrix(-0.246, -0.969, 0.969, -0.246, 387.672, 303.394)" fill="#6dc9f0"/>
        <path id="Path_2445" data-name="Path 2445" d="M0,3.637,83.922,1.888,83.958,0,.037,1.749Z" transform="matrix(-0.251, -0.968, 0.968, -0.251, 365.387, 303.425)" fill="#6dc9f0"/>
        <rect id="Rectangle_556" data-name="Rectangle 556" width="22.663" height="1.746" transform="translate(348.627 232.997)" fill="#6dc9f0"/>
        <rect id="Rectangle_557" data-name="Rectangle 557" width="22.596" height="1.746" transform="translate(351.742 244.066)" fill="#6dc9f0"/>
        <rect id="Rectangle_558" data-name="Rectangle 558" width="22.529" height="1.746" transform="translate(354.86 255.139)" fill="#6dc9f0"/>
        <rect id="Rectangle_559" data-name="Rectangle 559" width="22.463" height="1.746" transform="translate(357.975 266.211)" fill="#6dc9f0"/>
        <rect id="Rectangle_560" data-name="Rectangle 560" width="22.396" height="1.746" transform="translate(361.09 277.283)" fill="#6dc9f0"/>
        <rect id="Rectangle_561" data-name="Rectangle 561" width="22.329" height="1.746" transform="translate(364.204 288.355)" fill="#6dc9f0"/>
        <path id="Path_2381" data-name="Path 2381" d="M1426.09,1315.91a143.024,143.024,0,0,0,53.355,0A143.024,143.024,0,0,0,1426.09,1315.91Z" transform="translate(-1172.513 -989.961)" fill="#303672" opacity="0.2"/>
        <path id="Path_2382" data-name="Path 2382" d="M1546.049,1084.675c.535-1.187.926-2.424,1.472-3.606a11.258,11.258,0,0,1,2.711-4.271c.707-.589,2.2-1,2.909-.195a1.975,1.975,0,0,1,.284,1.613,15.165,15.165,0,0,1-.49,2.116,30.712,30.712,0,0,1-2.818,6.355c-.1.17-.19.347-.284.532-.661,1.293-1.3,3.234-2.992,3.6a1.827,1.827,0,0,1-1.373-.2C1543.55,1089.35,1545.385,1086.143,1546.049,1084.675Z" transform="translate(-1278.256 -811.153)" fill="#dd9892"/>
        <path id="Path_2383" data-name="Path 2383" d="M1537.753,1304.524a24.912,24.912,0,0,0-.406-4.234h3.008a8.221,8.221,0,0,1,.136,2.217c-.035.739-.131,1.441-.134,2.177q-1.3-.1-2.6-.079C1537.756,1304.586,1537.753,1304.559,1537.753,1304.524Z" transform="translate(-1263.354 -980.08)" fill="#f4a49b"/>
        <path id="Path_2384" data-name="Path 2384" d="M1535.61,1314.625c-.139,0,.11-1.091.131-1.18a2.228,2.228,0,0,1,1.338-1.6,5.4,5.4,0,0,1,2.015-.278,38.189,38.189,0,0,1,5.593.653.659.659,0,0,1,.607.451,5.5,5.5,0,0,1,.137,1.953C1545.442,1314.688,1537.58,1314.642,1535.61,1314.625Z" transform="translate(-1267.82 -988.574)"/>
        <path id="Path_2385" data-name="Path 2385" d="M1533.328,1009.568a3.386,3.386,0,0,0-.592.416,3.1,3.1,0,0,0-1.2,2.761,5.663,5.663,0,0,0,.829,3.114,6.045,6.045,0,0,0,1.223,1.133,1.021,1.021,0,0,0,.61.268.843.843,0,0,0,.573-.335,5.143,5.143,0,0,0,.867-2.037,3.555,3.555,0,0,1,1.391-2.045,3.2,3.2,0,0,0,1.472-2.1,1.773,1.773,0,0,0-.653-1.451,2.96,2.96,0,0,0-2.7-.453A7.8,7.8,0,0,0,1533.328,1009.568Z" transform="translate(-1259.782 -760.32)" fill="#303672"/>
        <path id="Path_2386" data-name="Path 2386" d="M1543.871,1082.568l-5.2-2.062a40.931,40.931,0,0,1,1.873-4.188,7.388,7.388,0,0,1,2.189-2.6,3.025,3.025,0,0,1,2.826-.219,2.975,2.975,0,0,1,1.854,2.217c.225,1.51-.72,3.109-1.584,4.33A23.85,23.85,0,0,1,1543.871,1082.568Z" transform="translate(-1270.647 -808.967)" fill="#8070f2"/>
        <path id="Path_2387" data-name="Path 2387" d="M1520.235,1179.91c-.04-.372-.083-.739-.128-1.111-.1-.879-.217-1.759-.268-2.641-.086-1.168-.088-2.338-.091-3.508,0-2.633,0-5.266.083-7.9a31.181,31.181,0,0,1,.648-7.252,4.018,4.018,0,0,1,2.245-2.759,3.731,3.731,0,0,1,1.161-.1l3.3.057a3,3,0,0,1,1.889.446c1.151.931-.121,3.907-.391,5.049-.385,1.636-.219,3.412-.68,4.988-.495,1.707-1.365,3.281-1.729,5.035a52.044,52.044,0,0,0-.562,11.772c.019.838-.3,10.222-.3,10.222l-4.282-.19s-.043-1.231-.059-1.665c-.027-.783-.08-1.569-.128-2.353Q1520.693,1183.952,1520.235,1179.91Z" transform="translate(-1247.685 -870.302)" fill="#381f7a"/>
        <path id="Path_2388" data-name="Path 2388" d="M1494.5,1302.958a24.722,24.722,0,0,0-.4-4.187h2.978a8.284,8.284,0,0,1,.136,2.195c-.037.722-.131,1.426-.134,2.155q-1.285-.1-2.577-.076C1494.506,1303.014,1494.506,1302.992,1494.5,1302.958Z" transform="translate(-1208.506 -978.935)" fill="#f4a49b"/>
        <path id="Path_2389" data-name="Path 2389" d="M1495.085,1170.839c-.182-2.2-.388-4.392-.76-6.567a66.143,66.143,0,0,0-2.218-8.52,20.166,20.166,0,0,1-.8-3.032,19.107,19.107,0,0,1-.166-2.106q-.056-1.409-.118-2.818a9.744,9.744,0,0,1,.268-3.449c.656-1.985,2.277-2.668,4.41-2.463,3.746.372,3.72,4.281,4.049,6.863a74.377,74.377,0,0,1,.567,8.927q.016,2.237-.088,4.473a26.038,26.038,0,0,0,.634,5.229,25.368,25.368,0,0,1,.187,4.128c-.037,3.695-.115,11.109-.115,11.109l-4.525.079c-.193-2.372-.674-4.722-.921-7.089C1495.339,1174.019,1495.219,1172.43,1495.085,1170.839Z" transform="translate(-1211.498 -860.667)" fill="#381f7a"/>
        <path id="Path_2390" data-name="Path 2390" d="M1492.116,1314.624c-.142,0,.11-1.091.131-1.18a2.227,2.227,0,0,1,1.351-1.6,5.4,5.4,0,0,1,2.015-.278,38.112,38.112,0,0,1,5.59.653.662.662,0,0,1,.61.451,5.559,5.559,0,0,1,.136,1.953C1501.948,1314.688,1494.078,1314.642,1492.116,1314.624Z" transform="translate(-1212.699 -988.574)"/>
        <path id="Path_2391" data-name="Path 2391" d="M1499.269,1087.755c1-.03,2.007-.121,3.011-.148q2.141-.057,4.282-.177c.522-.027,6.771-.475,6.765-.547-.142-1.655-.383-3.291-.535-4.958-.214-2.513-.292-5.035-.417-7.555-.12-2.411-.046-5.013-.964-7.308a5.672,5.672,0,0,0-4.281-3.626,13.092,13.092,0,0,0-6.958.668,6.218,6.218,0,0,0-3.3,3.988c-.509,1.781-.19,3.9-.134,5.722.067,2.2.209,4.4.4,6.589.219,2.338.535,4.668.768,7.005a.378.378,0,0,0,.126.3.471.471,0,0,0,.268.059C1498.635,1087.77,1498.951,1087.765,1499.269,1087.755Z" transform="translate(-1225.26 -801.425)" fill="#9b87ff"/>
        <path id="Path_2392" data-name="Path 2392" d="M1477.057,1070.867a2.392,2.392,0,0,1,1.632.643,16.605,16.605,0,0,1,1.683,1.512,22.664,22.664,0,0,1,3.794,4.826c.832,1.478,2.368,2.709,2.631,4.434.193,1.261-.514,2.68-1.028,3.825a35.229,35.229,0,0,1-2.111,3.877c-.535.882-1.105,1.754-1.606,2.66-.385.722-.586,1.621-1.367,2.089a1.207,1.207,0,0,1-1.635-.219,1.127,1.127,0,0,1-.177-.97,6.536,6.536,0,0,1,.447-1.081,40.316,40.316,0,0,0,2.574-7.555,10.739,10.739,0,0,0,.372-1.449,1.906,1.906,0,0,0-.578-1.389c-.351-.443-.68-.914-1.025-1.367-.8-1.049-1.729-2.015-2.524-3.072a11.32,11.32,0,0,1-2.473-4.392C1475.518,1072.371,1475.938,1070.985,1477.057,1070.867Z" transform="translate(-1193.157 -807.163)" fill="#f4a49b"/>
        <path id="Path_2393" data-name="Path 2393" d="M1527.594,1052.419a1.668,1.668,0,0,0,.591,1.02,2.292,2.292,0,0,0,1.365.266,5.259,5.259,0,0,0,1.071-.091c1.509-.333,1.461-1.38,1.225-2.54-.185-.914-.268-1.85-.417-2.771a.207.207,0,0,0-.054-.128.257.257,0,0,0-.174-.035q-1.07.047-2.173.118c-.613.039-1.22.032-1.833.084a18.809,18.809,0,0,1,.236,2.089A12.506,12.506,0,0,0,1527.594,1052.419Z" transform="translate(-1252.095 -790.039)" fill="#dd9892"/>
        <path id="Path_2394" data-name="Path 2394" d="M1517.381,1024.119a3.382,3.382,0,0,0,1.191,1.291,4.254,4.254,0,0,0,2.828.493,9.974,9.974,0,0,0,4.049-1.826,5.423,5.423,0,0,0,2.62-4.155,5.181,5.181,0,0,0-1.641-3.569,7.515,7.515,0,0,0-3.211-1.911c-.107-.03-.211-.059-.318-.084a5.066,5.066,0,0,0-3.019.135,5,5,0,0,0-2.275,2.786,9.782,9.782,0,0,0-.736,3.589A6.035,6.035,0,0,0,1517.381,1024.119Z" transform="translate(-1245.425 -764.453)" fill="#f4a49b"/>
        <path id="Path_2395" data-name="Path 2395" d="M1571.7,1090.648a31.358,31.358,0,0,0-2.564-5.33c-.8-1.579-1.632-3.151-2.352-4.766-.417-.933-1.485-.845-1.662.16-.268,1.478.407,2.956.824,4.355.5,1.66.923,3.338,1.338,5.013.292,1.145,1.445,3.466,2.911,3.653C1571.909,1093.949,1571.984,1091.636,1571.7,1090.648Z" transform="translate(-1302.086 -813.979)" fill="#dd9892"/>
        <path id="Path_2396" data-name="Path 2396" d="M1519.867,1013.875a5.027,5.027,0,0,0,.492-2.3,5.735,5.735,0,0,0-1.453-3.505c-2.234-2.5-5.807-3.286-9.155-3.448a10.029,10.029,0,0,0-1.491,0,2.423,2.423,0,0,0-2.363,1.606,1.387,1.387,0,0,0,.268,1.1,3.225,3.225,0,0,0,2.111.877c.9.14,1.8.3,2.7.441a4.219,4.219,0,0,1,2.189.852c1.169,1.017.819,2.833.327,4.077a3.43,3.43,0,0,1-1.962,2.086,3.614,3.614,0,0,1-1.456.108,10.362,10.362,0,0,1-2.141-.443,9.514,9.514,0,0,1-1.028-.4c-.088-.039-.714-.283-.693-.335a5.884,5.884,0,0,0-.169,2.867,3.348,3.348,0,0,0,1.986,2.414,3.4,3.4,0,0,0,2.925-.379,6.425,6.425,0,0,0,1.986-2.133,13.907,13.907,0,0,0,1.279-2.618,4.163,4.163,0,0,1,.629-1.306,1.128,1.128,0,0,1,.674-.416.96.96,0,0,1,.867.36,1.28,1.28,0,0,1,.251.875,2.029,2.029,0,0,1-1.07,1.631,4.556,4.556,0,0,1-.8.318.747.747,0,0,0-.615.626,13.4,13.4,0,0,1-.562,1.33,9.794,9.794,0,0,1,1,.035,5,5,0,0,0,1.033-.1,6.161,6.161,0,0,0,3.26-2.515A9.463,9.463,0,0,0,1519.867,1013.875Z" transform="translate(-1234.779 -757.224)"/>
        <path id="Path_2397" data-name="Path 2397" d="M1582.9,1059.413a2.325,2.325,0,0,0-.385.342,1.6,1.6,0,0,0-.3,2c.369.562,1.164.86,1.418,1.478a.221.221,0,0,0,.08.121.252.252,0,0,0,.128.022q.8-.015,1.606-.049a.45.45,0,0,0,.294-.084.349.349,0,0,0,.075-.261,19.917,19.917,0,0,0,.123-2.148,18.76,18.76,0,0,0-.626-1.82c-.206-1.049.04-2.163-.332-3.173-.035-.091-.088-.2-.2-.214a.286.286,0,0,0-.153.03.977.977,0,0,0-.535.68,2.63,2.63,0,0,0-.019.87l.152,1.724A2.591,2.591,0,0,0,1582.9,1059.413Z" transform="translate(-1320.738 -795.683)" fill="#dd9892"/>
        <path id="Path_2398" data-name="Path 2398" d="M1496.409,1160.22a2.9,2.9,0,0,0,2.874,1.153.161.161,0,0,0,.083-.032.128.128,0,0,0,.019-.108,15.645,15.645,0,0,1,.428-2.685.549.549,0,0,0-.113-.454.648.648,0,0,0-.438-.233c-.268-.066-.6-.182-.854-.246-.613-.13-.629.466-.827.823a2.731,2.731,0,0,1-1.391,1.017.171.171,0,0,0-.088.062.14.14,0,0,0,0,.108A2.482,2.482,0,0,0,1496.409,1160.22Z" transform="translate(-1211.623 -872.535)" fill="#f4a49b"/>
        <path id="Path_2399" data-name="Path 2399" d="M1491.647,1077.17l4.643-2.981a42.4,42.4,0,0,0-2.767-3.764,7.86,7.86,0,0,0-2.713-2.138,3.024,3.024,0,0,0-2.818.31,2.85,2.85,0,0,0-1.338,2.522c.11,1.522,1.384,2.914,2.5,3.941C1489.386,1075.264,1491.548,1077.224,1491.647,1077.17Z" transform="translate(-1205.564 -805.065)" fill="#9b87ff"/>
        <path id="Path_2400" data-name="Path 2400" d="M2027.8,593.67l2.957,7.624,6.382-5.784" transform="translate(-1891.227 -447.517)" fill="none" stroke="#9b87ff" stroke-miterlimit="10" stroke-width="4" stroke-dasharray="5 5 5"/>
        <path id="Path_2401" data-name="Path 2401" d="M1582.712,520.84c1.563-9.023,2.125-18.329-.048-27.243s-7.308-17.457-15.414-22.731c-13.878-9.035-32.888-5.035-41.061,8.72-1.311,2.217-1.373,6.047,1.357,6.133,1.731.057,2.826-1.685,3.289-3.222,2.676-8.868-2.363-18.442-9.722-24.687-11.352-9.634-28.457-13.112-43.162-8.779-7.051,2.076-13.843,6.18-16.738,12.452-1.536,3.325-.966,8.338,2.877,9.075a6.391,6.391,0,0,0,5.162-1.724c14.769-12.742-9.679-21.846-21.333-19.807-9.767,1.707-18.154,7.868-23.712,15.454s-8.563,16.521-10.565,25.487" transform="translate(-1273.832 -337.12)" fill="none" stroke="#9b87ff" stroke-miterlimit="10" stroke-width="4" stroke-dasharray="5 5 5"/>
        <path id="Path_2402" data-name="Path 2402" d="M2291.56,1314.63a153.172,153.172,0,0,1-57.16,0,153.172,153.172,0,0,1,57.16,0Z" transform="translate(-2200.934 -988.86)" fill="#0e5280" opacity="0.2"/>
        <path id="Path_2403" data-name="Path 2403" d="M2363.857,1300.782c.241-.7,1.555-4.308,1.755-4.256l-3.1-.806a8.993,8.993,0,0,0-.84,2.249c-.2.761-.321,1.52-.552,2.281q1.371.242,2.708.616C2363.836,1300.846,2363.844,1300.819,2363.857,1300.782Z" transform="translate(-2308.897 -976.636)" fill="#f4a49b"/>
        <path id="Path_2404" data-name="Path 2404" d="M2354.259,1308.956h.466a2.931,2.931,0,0,0,0-1.724,2.2,2.2,0,0,0-1.18-1.3,4.5,4.5,0,0,0-1.742-.246,5.815,5.815,0,0,1-1.627-.293c-1.242-.372-2.585-.554-3.859-.818a.761.761,0,0,0-.8.222,6.212,6.212,0,0,0-1,1.887c-.024.062,2.122.84,2.253.889q1.089.414,2.183.82a5.431,5.431,0,0,0,1.946.569Z" transform="translate(-2293.695 -983.281)"/>
        <path id="Path_2405" data-name="Path 2405" d="M2307.554,1157.155a13.765,13.765,0,0,0,2.853-3.49c3.077-5.946,4.014-13.5,4.115-20.031.027-1.515-.428-2.185-1.828-3a9.357,9.357,0,0,0-6.422-1.1c-3.171.636-3.144,3.466-3.7,5.848-1,4.311.134,8.969.873,13.225.358,2.057-.4,3.237-1.688,4.838a70.647,70.647,0,0,0-6.155,9.02c-.388.67-4.536,8.129-4.1,8.313l4.744,1.862a.249.249,0,0,0,.187.02.213.213,0,0,0,.091-.094c.521-.85,1.135-1.655,1.651-2.512q.857-1.421,1.777-2.811,1.838-2.776,3.928-5.4c.98-1.232,1.52-2.6,2.639-3.695C2306.869,1157.812,2307.215,1157.482,2307.554,1157.155Z" transform="translate(-2239.171 -851.266)" fill="#4ab4d8"/>
        <path id="Path_2406" data-name="Path 2406" d="M2233.2,1030.063a4.215,4.215,0,0,0,2.06-1.389c2.484-2.626,5.353-4.912,7.876-7.464.773-.781,1.8-.345,1.587.7-.316,1.537-1.544,2.764-2.5,4-1.512,1.953-2.92,3.981-4.357,5.986a5.981,5.981,0,0,1-1.017,1.182c-1.479,1.212-4.2.739-6.013.813-2.705.106-5.408.079-8.116.094a6.48,6.48,0,0,1-3.257-.431,1.689,1.689,0,0,1-.155-2.956c1.525-.872,3.966-.778,5.694-.714,2.315.086,4.63.185,6.942.281A4.412,4.412,0,0,0,2233.2,1030.063Z" transform="translate(-2149.873 -769.443)" fill="#f4a49b"/>
        <path id="Path_2407" data-name="Path 2407" d="M2316.2,1004.8c.233.936.61,1.508-.34,2.17a6.789,6.789,0,0,1-2.944,1.086,9.184,9.184,0,0,1-6.289-1.232c-2.532-1.769-2.427-5.217-.68-7.434a6.125,6.125,0,0,1,.677-.739c1.761-1.623,4.83-2.981,6.527-.525A20.516,20.516,0,0,1,2316.2,1004.8Z" transform="translate(-2244.655 -751.335)" fill="#f4a49b"/>
        <path id="Path_2408" data-name="Path 2408" d="M2211.628,1006.832c.086.091.166.185.244.283a.913.913,0,0,1,.147.246.947.947,0,0,1-.027.517,2.884,2.884,0,0,1-1.036,1.682c-.535.4-1.338.308-1.814.786a.265.265,0,0,1-.125.086.245.245,0,0,1-.131-.027q-.744-.3-1.477-.606a.415.415,0,0,1-.241-.185.352.352,0,0,1,.037-.271,18.9,18.9,0,0,0,.819-2.217,1.251,1.251,0,0,1,.437-.709,1.274,1.274,0,0,1,.382-.131,3.174,3.174,0,0,0,.519-.291l2.141-1.232a1.088,1.088,0,0,1,.482-.182.358.358,0,0,1,.388.246c.021.182-.179.315-.351.411a7.955,7.955,0,0,0-1.161.793.114.114,0,0,0-.053.079c0,.037.037.066.072.089a3.85,3.85,0,0,1,.75.631Z" transform="translate(-2114.456 -757.211)" fill="#f4a49b"/>
        <path id="Path_2409" data-name="Path 2409" d="M2329.136,1301.447c.021-.739.225-4.537.436-4.537h-3.212a8.963,8.963,0,0,0-.147,2.372c.04.781.142,1.545.144,2.333q1.392-.109,2.789-.084A.132.132,0,0,1,2329.136,1301.447Z" transform="translate(-2263.509 -977.533)" fill="#f4a49b"/>
        <path id="Path_2410" data-name="Path 2410" d="M2299.249,1158.547c.283-1.97.58-3.941.987-5.9a34.063,34.063,0,0,1,1.771-5.966,74.837,74.837,0,0,0,3.37-9.708,37.179,37.179,0,0,0,.934-4.926c.174-1.51-.222-2.217-1.565-3.165a9.662,9.662,0,0,0-6.422-1.724c-4.041.4-4.014,4.633-4.381,7.427a80.441,80.441,0,0,0-.616,9.658q-.015,2.419.1,4.838a28.088,28.088,0,0,1-.688,5.665,27.7,27.7,0,0,0-.2,4.466c.04,4.008.126,12.018.126,12.018l4.895.086c.267-3.17.731-6.321,1.212-9.469C2298.935,1160.754,2299.088,1159.65,2299.249,1158.547Z" transform="translate(-2231.275 -849.569)" fill="#6dc9f0"/>
        <path id="Path_2411" data-name="Path 2411" d="M2311.753,1312.2c.15,0-.117-1.167-.139-1.264a2.387,2.387,0,0,0-1.448-1.724,5.713,5.713,0,0,0-2.16-.3,40.614,40.614,0,0,0-5.992.7.708.708,0,0,0-.653.493,5.967,5.967,0,0,0-.147,2.091C2301.218,1312.276,2309.65,1312.227,2311.753,1312.2Z" transform="translate(-2239.046 -986.574)"/>
        <path id="Path_2412" data-name="Path 2412" d="M2317.356,1041.866a.277.277,0,0,1-.027.148.3.3,0,0,1-.16.1,12.737,12.737,0,0,1-4.234.594q0-2.328.145-4.653a.194.194,0,0,1,.043-.133.231.231,0,0,1,.168-.052c.736-.032,1.469-.057,2.2-.074.621-.015,1.231-.079,1.855-.079a19.358,19.358,0,0,0-.016,2.126C2317.34,1040.518,2317.359,1041.193,2317.356,1041.866Z" transform="translate(-2247.748 -782.187)" fill="#f4a49b"/>
        <path id="Path_2413" data-name="Path 2413" d="M2305.033,1076.281q-3.565.246-7.137.31c-.511,0-6.64.015-6.64-.057,0-1.682.1-3.35.1-5.045,0-2.875-.177-5.747-.268-8.621-.072-2.591-.393-5.52.9-7.9a6.773,6.773,0,0,1,7.131-2.956c2.516.611,4.014,2.99,4.627,5.294,1.25,4.626,1.247,9.988,1.263,14.733Q2305.033,1074.163,2305.033,1076.281Z" transform="translate(-2229.553 -792.845)" fill="#febe52"/>
        <path id="Path_2446" data-name="Path 2446" d="M0,18.039l12.032-.492L12.757,0,.724.492Z" transform="translate(77.652 294.85) rotate(-138.65)" fill="#fff"/>
        <path id="Path_2414" data-name="Path 2414" d="M2295.173,1142.359h.321a2.82,2.82,0,0,1,.773.111.74.74,0,0,1,.46.527c.067.263.086.635-.166.805a3.942,3.942,0,0,1-3,.557c-.177-.039-.348-.091-.519-.145-.319-.106-.627-.246-.945-.345a2.58,2.58,0,0,1-.636-.387,3.127,3.127,0,0,1-1.18-1.136,1.652,1.652,0,0,1-.067-.818,2.985,2.985,0,0,1,.112-.685.481.481,0,0,1,.094-.18.518.518,0,0,1,.284-.135,9.567,9.567,0,0,1,2.754.071c.251.03.5.077.747.111-.177.175-.353.35-.516.532a.725.725,0,0,0-.212.355c-.048.31.4.441.629.552A2.712,2.712,0,0,0,2295.173,1142.359Z" transform="translate(-2221.074 -859.612)" fill="#f4a49b"/>
        <path id="Path_2415" data-name="Path 2415" d="M2308.938,1076.777c-.779,1.7-1.93,3.816-.714,5.466a12.541,12.541,0,0,0,3.016,2.537,21.875,21.875,0,0,0,4.916,2.594c.682.247,4.161,1.343,3.7-.434a1.327,1.327,0,0,0-.484-.618q-3.532-3.03-7.338-5.766a26.578,26.578,0,0,1,1.547-2.877c1.241-2.4,3.211-4.747,2.914-7.56-.094-.889-.656-2.33-1.895-2.1-1.036.2-1.605,1.2-2.141,1.944a30.615,30.615,0,0,0-3.289,6.257A5.2,5.2,0,0,1,2308.938,1076.777Z" transform="translate(-2248.885 -805.007)" fill="#f4a49b"/>
        <path id="Path_2416" data-name="Path 2416" d="M2319.883,993.545a8.577,8.577,0,0,1,4.707-3.091,6.278,6.278,0,0,1,3.1-.187,3.068,3.068,0,0,1,2.253,1.835.837.837,0,0,1-.3,1.049,3.2,3.2,0,0,1-.621.113,1.2,1.2,0,0,0-.867.946c-.139.65.235,1.232.061,1.865a2.889,2.889,0,0,1-.535,1.069c-.254.305-.57.377-.867.606a.862.862,0,0,0-1.033-.33,1.157,1.157,0,0,0-.7.867c-.294,1.478,1.378,1.66,2.256,2.5a2.085,2.085,0,0,1,.385,2.584,3.135,3.135,0,0,1,.9,2.84,3.353,3.353,0,0,1-1.929,2.365,2.724,2.724,0,0,1,.348,3.2,4.812,4.812,0,0,1-2.812,2.1,8.387,8.387,0,0,1-5.4-.212,5.06,5.06,0,0,1-2.25-1.5,3.431,3.431,0,0,1,.117-4.188.412.412,0,0,0,.1-.544,5.546,5.546,0,0,1,1.951-6.481A8.547,8.547,0,0,1,2319.883,993.545Z" transform="translate(-2261.189 -746.338)"/>
      </g>
    </g>
  </g>
</svg>
