<svg id="Layer_1" data-name="Layer 1" xmlns="http://www.w3.org/2000/svg" width="40.829" height="40.005" viewBox="0 0 40.829 40.005">
  <path id="Path_1" data-name="Path 1" d="M8.3,112.03A15.514,15.514,0,0,1,6.248,108.7q-.213-.473-.4-.961a15.544,15.544,0,0,1-.181-10.289q.239-.716.545-1.4c.014-.032.028-.065.043-.1a15.6,15.6,0,0,1,1.716-2.9L4.159,90.087l-.045-.035a20.605,20.605,0,0,0-1.8,2.836q-.366.7-.682,1.43A20.376,20.376,0,0,0,5.074,115.8l3.867-3Q8.6,112.423,8.3,112.03Zm32.526-10.043c0-.1,0-.2-.007-.295v-.081c0-.09-.007-.18-.011-.271v-.065c-.006-.108-.011-.216-.019-.323s-.015-.208-.023-.312v-.055c-.009-.106-.019-.21-.03-.315s-.02-.2-.032-.3c-.015-.125-.031-.251-.048-.376-.013-.1-.027-.2-.042-.3q-.045-.3-.1-.605-.022-.126-.048-.252c-.015-.078-.031-.156-.047-.234V98.19l-.01-.048c-.019-.091-.039-.182-.059-.273s-.048-.213-.074-.318l-.078-.317L40.1,96.9c-.052-.191-.108-.382-.167-.569-.033-.106-.066-.21-.1-.315s-.068-.209-.1-.313c-.014-.041-.028-.082-.043-.123-.024-.069-.048-.138-.073-.206a20.432,20.432,0,0,0-.9-2.07q-.3-.6-.628-1.171-.39-.673-.83-1.314-.142-.207-.289-.409c-.048-.068-.1-.135-.148-.2l-.15-.2L36,90.527l-3.195,2.478q.3.4.579.82a14.953,14.953,0,0,1,.789,1.344c.06.114.121.233.177.351.041.083.082.166.121.25s.069.15.1.227c.026.058.052.114.077.175s.061.143.092.215c.048.114.1.227.14.35.032.08.061.159.09.239.009.023.018.045.026.069.034.092.066.184.1.277.073.21.141.424.2.639.028.1.057.2.083.3s.059.219.086.33c.01.04.019.081.03.121.016.064.031.129.044.192l.017.074c.022.1.042.2.063.293a.015.015,0,0,0,0,.007c.023.114.043.227.063.334q.089.494.143,1l.007.056c.024.214.042.428.056.644a.172.172,0,0,0,0,.025q.01.171.017.341c0,.114.008.194.01.292v.379a15.428,15.428,0,0,1-2.521,8.477c-.019.03-.038.058-.058.086-.265.4-.55.79-.852,1.165a15.7,15.7,0,0,1-2.388,2.38l3.944,3.06a20.649,20.649,0,0,0,2.306-2.444c.3-.374.588-.761.86-1.158l.059-.085a20.3,20.3,0,0,0,3.548-11.486C40.821,102.217,40.821,102.1,40.821,101.987Z" transform="translate(0.007 -79.773)" fill="#d6d6d6"/>
  <path id="Path_2" data-name="Path 2" d="M24.355,96.238,20.41,93.176a20.6,20.6,0,0,1,1.8-2.836l3.867,3a15.6,15.6,0,0,0-1.721,2.9Z" transform="translate(-18.088 -80.066)" fill="#d6d6d6"/>
  <path id="Path_3" data-name="Path 3" d="M135.266,174.095l-.085.066-1.176.913-2.727,2.116-.353-.274-3.635-2.822,1.688-1.309,1.039-.806,1.176-.913.084-.066Z" transform="translate(-112.813 -151.553)" fill="#d6d6d6"/>
  <path id="Path_4" data-name="Path 4" d="M268.7,279.662l-3.944-3.06a15.7,15.7,0,0,0,2.388-2.38c.323-.4.628-.819.91-1.251l3.867,3q-.428.638-.914,1.243A20.647,20.647,0,0,1,268.7,279.662Z" transform="translate(-234.649 -241.926)" fill="#d6d6d6"/>
  <path id="Path_5" data-name="Path 5" d="M18.476,97.738,14.44,94.606q.312-.73.682-1.43a20.605,20.605,0,0,1,1.8-2.836l3.867,3a15.6,15.6,0,0,0-1.721,2.9A15.363,15.363,0,0,0,18.476,97.738Z" transform="translate(-12.797 -80.066)" fill="#d6d6d6"/>
  <path id="Path_6" data-name="Path 6" d="M124.176,182.7l-2.727,2.116-.084.065-.74.575-.436.338-3.75-2.909-.239-.185.571-.444.605-.47.085-.066,1.688-1.309,1.039-.806Z" transform="translate(-102.984 -159.183)" fill="#d6d6d6"/>
  <path id="Path_7" data-name="Path 7" d="M268.7,289.411l-3.944-3.06a15.7,15.7,0,0,0,2.388-2.38l3.867,3A20.65,20.65,0,0,1,268.7,289.411Z" transform="translate(-234.649 -251.675)" fill="#d6d6d6"/>
  <path id="Path_8" data-name="Path 8" d="M55.255,68.452l-3.867,3-10.942,8.49-.085.066-1.176.91-2.729,2.116-.084.065-.74.575-.436.341-5.872,4.556-2.381,1.848-3.867,3A20.524,20.524,0,0,1,20.3,89.389l3.108-2.416.838-.647,6.96-5.4.569-.444.605-.47.085-.066,1.688-1.309,1.039-.806,1.176-.91.084-.066L48.08,67.832l3.945-3.062a20.458,20.458,0,0,1,2.643,2.869c.05.066.1.133.15.2s.1.134.148.2Q55.113,68.247,55.255,68.452Z" transform="translate(-17.99 -57.404)" fill="#d6d6d6"/>
  <path id="Path_9" data-name="Path 9" d="M46.072,250.624a20.524,20.524,0,0,1-2.772-4.038l.935-.726q.182.488.4.961a15.514,15.514,0,0,0,2.047,3.334Z" transform="translate(-38.375 -217.899)" fill="#d6d6d6"/>
  <path id="Path_10" data-name="Path 10" d="M40.821,101.987c0-.1,0-.2-.007-.295v-.081c0-.09-.007-.18-.011-.271v-.065c-.006-.108-.011-.216-.019-.323s-.015-.208-.023-.312v-.055c-.009-.106-.019-.21-.03-.315s-.02-.2-.032-.3c-.015-.125-.031-.251-.048-.376-.013-.1-.027-.2-.042-.3q-.045-.3-.1-.605-.022-.126-.048-.252c-.015-.078-.031-.156-.047-.234V98.19l-.01-.048c-.019-.091-.039-.182-.059-.273s-.048-.213-.074-.318l-.078-.317L40.1,96.9q-.081-.287-.167-.569c-.033-.106-.066-.21-.1-.315s-.068-.209-.1-.313c-.014-.041-.028-.082-.043-.123-.024-.069-.048-.138-.073-.206a20.432,20.432,0,0,0-.9-2.07q-.3-.6-.628-1.171-.39-.673-.83-1.314-.142-.207-.289-.409c-.048-.068-.1-.135-.148-.2l-.15-.2L36,90.527l-3.195,2.478q.3.4.579.82a14.953,14.953,0,0,1,.789,1.344c.06.114.121.233.177.351.041.083.081.166.121.25s.069.15.1.227c.026.058.052.114.077.175s.061.143.092.215c.048.114.1.227.14.35.032.08.061.159.09.239.009.023.018.045.026.069.033.092.066.184.1.277.073.21.14.424.2.639.028.1.057.2.083.3s.059.219.086.33c.01.04.02.081.03.121.016.064.031.127.044.192l.017.074c.022.1.042.2.063.293a.015.015,0,0,0,0,.007c.022.114.043.227.063.334.058.329.107.661.143,1l.007.056c.023.214.041.428.056.644a.172.172,0,0,0,0,.025c0,.114.013.227.017.341s.008.194.01.292v.379a15.428,15.428,0,0,1-2.521,8.477c-.019.03-.038.058-.058.086-.265.4-.55.79-.852,1.165a15.7,15.7,0,0,1-2.388,2.38l3.944,3.06a20.649,20.649,0,0,0,2.306-2.444c.3-.374.588-.761.86-1.158l.059-.085a20.3,20.3,0,0,0,3.548-11.486C40.821,102.217,40.821,102.1,40.821,101.987ZM8.3,112.03A15.514,15.514,0,0,1,6.248,108.7q-.213-.473-.4-.961a15.544,15.544,0,0,1-.181-10.289q.239-.716.545-1.4c.014-.032.028-.065.043-.1a15.6,15.6,0,0,1,1.716-2.9L4.159,90.087l-.045-.035a20.605,20.605,0,0,0-1.8,2.836q-.366.7-.682,1.43A20.376,20.376,0,0,0,5.074,115.8l3.867-3Q8.6,112.423,8.3,112.03Z" transform="translate(0.007 -79.773)" fill="#d6d6d6"/>
  <path id="Path_11" data-name="Path 11" d="M104.678,242.464c.057-.169.114-.341.177-.5l-5.441,4.223-.4.308q-.018.428-.018.861,0,.945.084,1.87a20.27,20.27,0,0,0,1.145,5.112l.1.114,3.867-3,.2-.154a15.544,15.544,0,0,1-.382-5.893A15.291,15.291,0,0,1,104.678,242.464Z" transform="translate(-87.74 -214.443)" fill="#d6d6d6"/>
  <path id="Path_12" data-name="Path 12" d="M24.355,96.238,20.41,93.176a20.6,20.6,0,0,1,1.8-2.836l3.867,3a15.6,15.6,0,0,0-1.721,2.9Z" transform="translate(-18.088 -80.066)" fill="#d6d6d6"/>
  <path id="Path_13" data-name="Path 13" d="M135.266,174.095l-.085.066-1.176.913-2.727,2.116-.353-.274-3.635-2.822,1.688-1.309,1.039-.806,1.176-.913.084-.066Z" transform="translate(-112.813 -151.553)" fill="#d6d6d6"/>
  <path id="Path_14" data-name="Path 14" d="M268.7,279.662l-3.944-3.06a15.7,15.7,0,0,0,2.388-2.38c.323-.4.628-.819.91-1.251l3.867,3q-.428.638-.914,1.243A20.647,20.647,0,0,1,268.7,279.662Z" transform="translate(-234.649 -241.926)" fill="#d6d6d6"/>
  <path id="Path_15" data-name="Path 15" d="M18.476,97.738,14.44,94.606q.312-.73.682-1.43a20.605,20.605,0,0,1,1.8-2.836l3.867,3a15.6,15.6,0,0,0-1.721,2.9A15.363,15.363,0,0,0,18.476,97.738Z" transform="translate(-12.797 -80.066)" fill="#d6d6d6"/>
  <path id="Path_16" data-name="Path 16" d="M124.176,182.7l-2.727,2.116-.084.065-.74.575-.436.338-3.75-2.909-.239-.185.571-.444.605-.47.085-.066,1.688-1.309,1.039-.806Z" transform="translate(-102.984 -159.183)" fill="#d6d6d6"/>
  <path id="Path_17" data-name="Path 17" d="M268.7,289.411l-3.944-3.06a15.7,15.7,0,0,0,2.388-2.38l3.867,3A20.65,20.65,0,0,1,268.7,289.411Z" transform="translate(-234.649 -251.675)" fill="#d6d6d6"/>
  <path id="Path_18" data-name="Path 18" d="M55.255,68.452l-3.867,3-10.942,8.49-.085.066-1.176.91-2.729,2.116-.084.065-.74.575-.436.341-5.872,4.556-2.381,1.848-3.867,3A20.524,20.524,0,0,1,20.3,89.389l3.108-2.416.838-.647,6.96-5.4.569-.444.605-.47.085-.066,1.688-1.309,1.039-.806,1.176-.91.084-.066L48.08,67.832l3.945-3.062a20.458,20.458,0,0,1,2.643,2.869c.05.066.1.133.15.2s.1.134.148.2Q55.113,68.247,55.255,68.452Z" transform="translate(-17.99 -57.404)" fill="#d6d6d6"/>
  <path id="Path_19" data-name="Path 19" d="M35.278,90.3l-.655.508-1.039.806L31.9,92.928l-.085.066-.513.4-.086-.067-6.965-5.4-.032-.025L20.3,84.868c.016-.031.032-.061.049-.092a20.418,20.418,0,0,1,1.808-2.83q.438-.575.91-1.117l3.867,3,2.381,1.848,5.871,4.556Z" transform="translate(-17.99 -71.637)" fill="#d6d6d6"/>
  <path id="Path_20" data-name="Path 20" d="M157.107,192.2l-1.176.913-2.727,2.116-.084.065-.318-.247-.771-.6.521-.4.084-.065,2.727-2.116.655-.508Z" transform="translate(-134.739 -169.588)" fill="#d6d6d6"/>
  <path id="Path_21" data-name="Path 21" d="M186.088,214.69l.971.754-2.884,2.238-.084.066-1.019.792-.972-.755.011-.009,1.261-.979Z" transform="translate(-161.389 -190.274)" fill="#d6d6d6"/>
  <path id="Path_22" data-name="Path 22" d="M237.313,254.432a20.548,20.548,0,0,1-3.23,3.682l-3.945-3.062-4.418-3.429,1.018-.79.085-.066,2.884-2.238L233.4,251.4l.043.033,3.827,2.971Z" transform="translate(-200.049 -220.265)" fill="#d6d6d6"/>
  <path id="Path_23" data-name="Path 23" d="M123.825,156.513v.049l-5.44,4.222-1.261.979-.011.009-2.716,2.107-1.256.975-.011.009-8.043,6.246-.2.154-3.867,3-.1-.114a20.269,20.269,0,0,1-1.145-5.112l2.413-1.876,2.512-1.949,4.435-3.443.011-.009,1.261-.979,2.716-2.106.011-.009,1.261-.979,7.992-6.2.065.134c.035.074.069.15.1.227.026.058.052.114.077.175s.061.143.092.215c.048.114.1.227.14.35.032.08.061.159.09.239.009.023.018.046.026.069.033.092.066.184.1.277.073.21.14.424.2.639.028.1.057.2.083.3s.059.219.086.33c.01.04.02.081.03.121.016.064.031.127.044.192l.017.074c.022.1.042.2.063.293a.015.015,0,0,0,0,.007c.022.114.043.227.063.334.058.329.107.661.143,1Z" transform="translate(-88.431 -134.262)" fill="#d6d6d6"/>
  <path id="Path_24" data-name="Path 24" d="M335.693,123.883l-.653.506-.024-.1-.089-.332q-.081-.287-.167-.569c-.033-.106-.066-.21-.1-.315s-.068-.209-.1-.313c-.014-.041-.028-.082-.043-.123-.024-.069-.048-.138-.073-.206a20.436,20.436,0,0,0-.885-2.07c-.121-.243-.245-.483-.375-.72l.83-.645a20.437,20.437,0,0,1,.885,2.068c.025.068.049.136.073.206.015.041.03.082.043.123.036.1.07.208.1.313s.067.209.1.315q.086.284.167.569l.089.332c.026.106.053.212.078.317s.05.212.074.318.04.182.059.273Z" transform="translate(-295.288 -105.466)" fill="#d6d6d6"/>
  <path id="Path_25" data-name="Path 25" d="M235.191,5.225A20.269,20.269,0,0,0,234.046.114l-.1-.114-3.867,3-.2.154a15.544,15.544,0,0,1,.382,5.893,15.291,15.291,0,0,1-.664,2.932c-.033.1-.066.2-.1.292l3.993-3.1L235.267,7.8c.008-.234.013-.469.013-.705Q235.275,6.149,235.191,5.225Z" transform="translate(-203.399)" fill="#d6d6d6"/>
  <path id="Path_26" data-name="Path 26" d="M130.868,5.225,128.45,7.1,125.938,9.05,121.5,12.493l-.011.009-1.261.979-2.716,2.106-.011.009-1.26.979-.464.359-3.988-3.095.463-.359,1.267-.979.011-.009,2.716-2.107,1.253-.978.011-.009,8.043-6.241.2-.154,3.872-3,.1.114a20.27,20.27,0,0,1,1.145,5.111Z" transform="translate(-99.076)" fill="#d6d6d6"/>
  <path id="Path_27" data-name="Path 27" d="M46.072,250.624a20.524,20.524,0,0,1-2.772-4.038l.935-.726q.182.488.4.961a15.514,15.514,0,0,0,2.047,3.334Z" transform="translate(-38.375 -217.899)" fill="#d6d6d6"/>
</svg>
