<svg xmlns="http://www.w3.org/2000/svg" width="373" height="802.746" viewBox="0 0 373 802.746">
  <g id="Group_450" data-name="Group 450" transform="translate(-1311 -3112)">
    <path id="Path_2473" data-name="Path 2473" d="M10,0H363c5.523,0,10,4.038,10,9.019V232.688s-111.931,59.829-162.247,61.9-13.94-41.564-37.3-53.605-76.177.869-109.39,0S0,232.688,0,232.688V9.019C0,4.038,4.477,0,10,0Z" transform="translate(1311 3112)" fill="#79ba7c"/>
    <g id="Path_2474" data-name="Path 2474" transform="translate(1311 3112)" fill="none">
      <path d="M10,0H363c5.523,0,10,4.193,10,9.366V793.38c0,5.173-4.477,9.366-10,9.366H10c-5.523,0-10-4.193-10-9.366V9.366C0,4.193,4.477,0,10,0Z" stroke="none"/>
      <path d="M 10 2.99993896484375 C 6.14019775390625 2.99993896484375 3 5.85577392578125 3 9.36602783203125 L 3 793.3799438476562 C 3 796.8902587890625 6.14019775390625 799.7460327148438 10 799.7460327148438 L 363 799.7460327148438 C 366.8598022460938 799.7460327148438 370 796.8902587890625 370 793.3799438476562 L 370 9.36602783203125 C 370 5.85577392578125 366.8598022460938 2.99993896484375 363 2.99993896484375 L 10 2.99993896484375 M 10 -6.103515625e-05 L 363 -6.103515625e-05 C 368.5228881835938 -6.103515625e-05 373 4.193359375 373 9.36602783203125 L 373 793.3799438476562 C 373 798.5526733398438 368.5228881835938 802.7460327148438 363 802.7460327148438 L 10 802.7460327148438 C 4.47711181640625 802.7460327148438 0 798.5526733398438 0 793.3799438476562 L 0 9.36602783203125 C 0 4.193359375 4.47711181640625 -6.103515625e-05 10 -6.103515625e-05 Z" stroke="none" fill="#79ba7c"/>
    </g>
  </g>
</svg>
